<svg id="visual" viewBox="0 0 900 600" width="900" height="600" xmlns="http://www.w3.org/2000/svg" xmlns:xlink="http://www.w3.org/1999/xlink" version="1.1"><rect x="0" y="0" width="900" height="600" fill="#001220"></rect><defs><linearGradient id="grad1_0" x1="33.3%" y1="100%" x2="100%" y2="0%"><stop offset="20%" stop-color="#001220" stop-opacity="1"></stop><stop offset="80%" stop-color="#001220" stop-opacity="1"></stop></linearGradient></defs><defs><linearGradient id="grad2_0" x1="0%" y1="100%" x2="66.7%" y2="0%"><stop offset="20%" stop-color="#001220" stop-opacity="1"></stop><stop offset="80%" stop-color="#001220" stop-opacity="1"></stop></linearGradient></defs><g transform="translate(900, 600)"><path d="M-216.3 0C-195 -22.8 -173.7 -45.7 -159.8 -66.2C-146 -86.7 -139.6 -105 -129.4 -129.4C-119.2 -153.8 -105 -184.4 -82.8 -199.9C-60.6 -215.4 -30.3 -215.9 0 -216.3L0 0Z" fill="#FF0066"></path></g><g transform="translate(0, 0)"><path d="M216.3 0C195.3 21.1 174.3 42.3 166.3 68.9C158.3 95.5 163.2 127.6 151.3 151.3C139.5 175.1 110.8 190.4 82.8 199.9C54.8 209.3 27.4 212.8 0 216.3L0 0Z" fill="#FF0066"></path></g></svg>